<?xml version="1.0" encoding="utf-8"?>
<!-- Generator: Adobe Illustrator 22.0.0, SVG Export Plug-In . SVG Version: 6.00 Build 0)  -->
<svg version="1.1" id="Слой_1" xmlns="http://www.w3.org/2000/svg" xmlns:xlink="http://www.w3.org/1999/xlink" x="0px" y="0px"
	 viewBox="0 0 16 14" style="enable-background:new 0 0 16 14;" xml:space="preserve">
<style type="text/css">
	.st0{fill:#FFFFFF;}
</style>
<path class="st0" d="M0.3,6.7L4,8.1l1.4,4.6c0.1,0.3,0.5,0.4,0.7,0.2l2.1-1.7c0.2-0.2,0.5-0.2,0.7,0l3.7,2.7c0.3,0.2,0.6,0,0.7-0.3
	L16,0.5c0.1-0.3-0.3-0.6-0.6-0.5L0.3,5.9C-0.1,6-0.1,6.6,0.3,6.7z M5.2,7.4l7.2-4.5c0.1-0.1,0.3,0.1,0.2,0.2L6.6,8.7
	C6.4,8.9,6.2,9.1,6.2,9.4L6,10.9c0,0.2-0.3,0.2-0.4,0L4.8,8.2C4.8,7.9,4.9,7.5,5.2,7.4z"/>
</svg>
